<?xml version="1.0" encoding="UTF-8"?>
<svg width="95px" height="95px" viewBox="0 0 95 95" version="1.1" xmlns="http://www.w3.org/2000/svg" xmlns:xlink="http://www.w3.org/1999/xlink">
    <!-- Generator: Sketch 51.3 (57544) - http://www.bohemiancoding.com/sketch -->
    <title>Group 2</title>
    <desc>Created with Sketch.</desc>
    <defs></defs>
    <g id="new-landing-page" stroke="none" stroke-width="1" fill="none" fill-rule="evenodd">
        <g id="iPhone-X" transform="translate(-388.000000, -197.000000)">
            <g id="Group-2" transform="translate(388.000000, 197.000000)">
                <circle id="Oval-2" fill="#FFBEBE" opacity="0.384988839" cx="47.5" cy="47.5" r="47.5"></circle>
                <g id="Group" transform="translate(32.000000, 21.000000)" fill="#D30101" fill-rule="nonzero">
                    <path d="M26.3961283,0 L4.20895526,0 C3.08777575,0.00164131513 2.01344702,0.449893271 1.2235877,1.24561208 C0.433728383,2.04133089 -0.00657109343,3.11894326 7.41417592e-05,4.24010427 L7.41417592e-05,48.5769825 C0.00351934645,50.9024931 1.88968672,52.7858662 4.21519989,52.7858636 L26.3961283,52.7858636 C28.7216414,52.7858662 30.6078088,50.9024931 30.611254,48.5769825 L30.611254,4.24010427 C30.6179045,3.11786182 30.1767498,2.03929991 29.3855384,1.24339987 C28.594327,0.447499823 27.5183904,-1.97051885e-05 26.3961283,0 Z M4.20895526,2.49785229 L26.3961283,2.49785229 C26.8559385,2.49780365 27.2965622,2.68215497 27.6193412,3.00962893 C27.9421202,3.3371029 28.1200899,3.78034265 28.1134017,4.24010427 L28.1135836,6.20091832 L2.51023233,6.20091832 L2.5104157,4.24010427 C2.50374789,3.78357248 2.67915904,3.34317953 2.99788291,3.0162532 C3.31660679,2.68932687 3.75240142,2.50278448 4.20895526,2.49785229 Z M28.1071571,8.67379209 L28.1071571,39.0913884 L2.50417107,39.0913884 L2.50417107,8.66754746 L28.1071571,8.67379209 Z M26.3961283,50.3254791 L4.20895526,50.3254791 C3.74912807,50.3238831 3.30914944,50.1379411 2.98754089,49.80929 C2.66593234,49.480639 2.48956312,49.0367364 2.49792644,48.5769825 L2.49792644,41.5892407 L28.101095,41.5892407 L28.1009125,48.5769825 C28.107581,49.0345868 27.9313165,49.4759234 27.6112434,49.803031 C27.2911703,50.1301387 26.8537694,50.3159547 26.3961283,50.3192345 L26.3961283,50.3254791 Z" id="Shape"></path>
                    <g id="noun_Mobile_1079810" transform="translate(12.000000, 43.000000)">
                        <circle id="Oval" cx="3.10666667" cy="3.00666667" r="2.5"></circle>
                    </g>
                </g>
            </g>
        </g>
    </g>
</svg>